<svg width="19" height="18" viewBox="0 0 19 18" fill="none" xmlns="http://www.w3.org/2000/svg">
<path d="M17.6765 6H15.7989L11.6911 0.225193C11.5071 -0.0334869 11.1714 -0.075527 10.9413 0.131513C10.7112 0.338513 10.6739 0.716073 10.858 0.974833L14.4325 6H3.77747L7.35204 0.974833C7.53609 0.716073 7.49879 0.338473 7.26874 0.131513C7.03863 -0.075527 6.70292 -0.0335269 6.5189 0.225193L2.41108 6H0.533496C0.238864 6 0 6.26864 0 6.6V9C0 9.33136 0.238864 9.6 0.533496 9.6H1.19809L3.22153 17.5648C3.28694 17.8224 3.49628 18 3.73447 18H14.4755C14.7137 18 14.9231 17.8224 14.9885 17.5648L17.0119 9.6H17.6765C17.9711 9.6 18.21 9.33136 18.21 9V6.6C18.21 6.26864 17.9711 6 17.6765 6ZM17.143 8.4C15.3154 8.4 2.79836 8.4 1.06699 8.4V7.2H17.143V8.4Z" fill="#96A7AF"/>
<path d="M5.64435 15.0988C5.68785 15.3923 5.91384 15.6003 6.16996 15.6003C6.19908 15.6003 6.2286 15.5976 6.2583 15.592C6.54895 15.5375 6.74528 15.2284 6.69684 14.9015L6.16334 11.3015C6.1149 10.9746 5.84008 10.7539 5.54939 10.8083C5.25874 10.8628 5.06242 11.1719 5.11086 11.4988L5.64435 15.0988Z" fill="#FDFDFD"/>
<path d="M11.9869 15.592C12.0166 15.5976 12.0461 15.6003 12.0752 15.6003C12.3313 15.6003 12.5573 15.3923 12.6008 15.0988L13.1343 11.4988C13.1828 11.172 12.9865 10.8628 12.6958 10.8083C12.4052 10.7537 12.1303 10.9747 12.0819 11.3015L11.5484 14.9015C11.4999 15.2284 11.6962 15.5376 11.9869 15.592Z" fill="#FDFDFD"/>
<path d="M9.10479 15.6001C9.39942 15.6001 9.63828 15.3314 9.63828 15.0001V11.4C9.63828 11.0687 9.39942 10.8 9.10479 10.8C8.81015 10.8 8.57129 11.0687 8.57129 11.4V15.0001C8.57129 15.3315 8.81015 15.6001 9.10479 15.6001Z" fill="#FDFDFD"/>
</svg>
