<svg width="19" height="20" viewBox="0 0 19 20" fill="none" xmlns="http://www.w3.org/2000/svg">
<path d="M18.2907 16.1958V10.9159C18.2907 9.1888 18.2907 8.32531 17.934 7.56204C17.5772 6.79877 16.9056 6.22507 15.5622 5.07767L14.5461 4.20975C11.9758 2.01441 10.6907 0.916748 9.14533 0.916748C7.59997 0.916748 6.31485 2.01441 3.7446 4.20975L2.72845 5.07767C1.38509 6.22507 0.713417 6.79877 0.356709 7.56204C0 8.32531 0 9.1888 0 10.9159V16.1958C0 17.1058 0 17.5607 0.154698 17.9196C0.360966 18.398 0.756603 18.7783 1.25457 18.9765C1.62805 19.1251 2.10152 19.1251 3.04844 19.1251H3.38716C4.01715 19.1251 4.33215 19.1251 4.59059 19.0586C5.29192 18.8779 5.83972 18.3516 6.02764 17.6776C6.09689 17.4293 6.09689 17.1267 6.09689 16.5213V14.243C6.09689 12.6252 7.46168 11.3138 9.14533 11.3138C10.829 11.3138 12.1938 12.6252 12.1938 14.243V16.5213C12.1938 17.1267 12.1938 17.4293 12.263 17.6776C12.451 18.3516 12.9988 18.8779 13.7001 19.0586C13.9585 19.1251 14.2735 19.1251 14.9035 19.1251H15.2422C16.1892 19.1251 16.6626 19.1251 17.0361 18.9765C17.534 18.7783 17.9297 18.398 18.136 17.9196C18.2907 17.5607 18.2907 17.1058 18.2907 16.1958Z" fill="#96A7AF"/>
</svg>
