<svg width="20" height="23" viewBox="0 0 20 23" fill="none" xmlns="http://www.w3.org/2000/svg">
<path fill-rule="evenodd" clip-rule="evenodd" d="M9.82853 0.958252C6.26324 0.958252 3.373 3.79005 3.373 7.28325V9.99394C3.373 10.9715 3.04941 11.9226 2.45079 12.7047L1.08378 14.4905C0.56076 15.1738 0.713616 16.1095 1.51397 16.4479C2.95425 17.0569 5.6075 17.8249 9.82853 17.8249C14.0496 17.8249 16.7028 17.0569 18.143 16.4479C18.9434 16.1095 19.0963 15.1738 18.5733 14.4905L17.2062 12.7047C16.6077 11.9226 16.2841 10.9715 16.2841 9.99394V7.28325C16.2841 3.79005 13.3938 0.958252 9.82853 0.958252ZM9.82853 21.5145C8.48804 21.5145 7.37649 20.5536 7.17228 19.2965C7.97838 19.3659 8.86235 19.4062 9.82853 19.4062C10.7946 19.4062 11.6787 19.3659 12.4848 19.2965C12.2806 20.5536 11.169 21.5145 9.82853 21.5145Z" fill="#96A7AF"/>
</svg>
