<svg width="19" height="20" viewBox="0 0 19 20" fill="none" xmlns="http://www.w3.org/2000/svg">
<path id="Shape" fill-rule="evenodd" clip-rule="evenodd" d="M1.19049 2.12978C0 3.34282 0 5.29517 0 9.19987V17.1159C0 17.9261 0 18.3313 0.105131 18.5481C0.330756 19.0134 0.85961 19.2366 1.34206 19.0703C1.56685 18.9926 1.84802 18.7062 2.41034 18.1332H2.41035L2.41037 18.1331C2.86636 17.6685 3.09435 17.4362 3.34559 17.2486C3.87208 16.8555 4.48376 16.5973 5.12888 16.496C5.43672 16.4476 5.75915 16.4476 6.40401 16.4476H10.6696C14.0101 16.4476 15.6804 16.4476 16.8047 15.5075C17.0104 15.3354 17.1991 15.1431 17.368 14.9335C18.2907 13.7879 18.2907 12.086 18.2907 8.68218C18.2907 5.27835 18.2907 3.57644 17.368 2.43093C17.1991 2.22123 17.0104 2.02894 16.8047 1.85684C15.6804 0.916748 14.0101 0.916748 10.6696 0.916748H8.12918C4.29705 0.916748 2.38099 0.916748 1.19049 2.12978ZM4.57267 10.2353C5.41447 10.2353 6.09689 9.5399 6.09689 8.68218C6.09689 7.82446 5.41447 7.12909 4.57267 7.12909C3.73086 7.12909 3.04845 7.82446 3.04845 8.68218C3.04845 9.5399 3.73086 10.2353 4.57267 10.2353ZM10.6696 8.68218C10.6696 9.5399 9.98711 10.2353 9.14533 10.2353C8.30356 10.2353 7.62111 9.5399 7.62111 8.68218C7.62111 7.82446 8.30356 7.12909 9.14533 7.12909C9.98711 7.12909 10.6696 7.82446 10.6696 8.68218ZM13.718 10.2353C14.5598 10.2353 15.2422 9.5399 15.2422 8.68218C15.2422 7.82446 14.5598 7.12909 13.718 7.12909C12.8762 7.12909 12.1938 7.82446 12.1938 8.68218C12.1938 9.5399 12.8762 10.2353 13.718 10.2353Z" fill="#3E73C1"/>
</svg>
