<svg width="17" height="17" viewBox="0 0 17 17" fill="none" xmlns="http://www.w3.org/2000/svg">
<path d="M6.6858 13.0759C8.09748 13.0759 9.41566 12.618 10.4872 11.8558L14.5183 15.8724C14.7054 16.0587 14.952 16.1518 15.2071 16.1518C15.7599 16.1518 16.1596 15.7275 16.1596 15.186C16.1596 14.9316 16.0745 14.6945 15.8874 14.5073L11.8819 10.5079C12.7238 9.40681 13.2256 8.04265 13.2256 6.55945C13.2256 2.97481 10.2831 0.0429688 6.6858 0.0429688C3.08004 0.0429688 0.145996 2.97481 0.145996 6.55945C0.145996 10.1441 3.08004 13.0759 6.6858 13.0759ZM6.6858 11.6686C3.87089 11.6686 1.55777 9.35593 1.55777 6.55945C1.55777 3.76297 3.87089 1.44937 6.6858 1.44937C9.49227 1.44937 11.8139 3.76297 11.8139 6.55945C11.8139 9.35593 9.49227 11.6686 6.6858 11.6686Z" fill="#A6A6A6"/>
</svg>
